<?xml version="1.0" standalone="no"?>
<!DOCTYPE svg PUBLIC "-//W3C//DTD SVG 20010904//EN"
 "http://www.w3.org/TR/2001/REC-SVG-20010904/DTD/svg10.dtd">
<svg version="1.0" xmlns="http://www.w3.org/2000/svg"
 width="512.000000pt" height="512.000000pt" viewBox="0 0 512.000000 512.000000"
 preserveAspectRatio="xMidYMid meet">

<g transform="translate(0.000000,512.000000) scale(0.100000,-0.100000)"
fill="#000000" stroke="none">
<path d="M2490 4585 c-25 -43 -43 -61 -80 -80 -27 -14 -51 -29 -55 -35 -13
-21 6 -46 55 -72 37 -21 57 -41 78 -78 34 -63 58 -72 89 -34 12 16 27 40 33
55 6 14 34 38 63 55 74 42 76 69 5 110 -41 23 -60 42 -81 82 -39 72 -64 72
-107 -3z"/>
<path d="M1181 4601 c-8 -5 -28 -35 -45 -67 -26 -50 -40 -64 -93 -93 -96 -53
-95 -81 2 -135 48 -27 64 -43 91 -91 54 -97 82 -98 135 -3 29 54 43 68 97 97
94 52 94 79 0 132 -51 28 -68 44 -97 94 -44 76 -58 86 -90 66z"/>
<path d="M3383 4401 c-10 -10 -30 -41 -45 -69 -22 -40 -39 -57 -88 -84 -58
-32 -81 -62 -66 -87 4 -6 35 -26 69 -45 52 -29 67 -45 92 -91 17 -31 36 -61
42 -67 26 -21 58 1 93 63 29 52 45 68 94 95 33 18 63 40 68 48 14 26 -8 52
-72 87 -50 28 -65 43 -90 91 -27 50 -54 78 -74 78 -3 0 -14 -8 -23 -19z"/>
<path d="M1881 4128 c-17 -29 -31 -56 -31 -60 0 -3 -30 -23 -66 -43 -57 -32
-65 -40 -62 -62 2 -20 18 -35 63 -62 45 -28 66 -48 87 -86 49 -91 76 -91 128
-1 23 42 43 62 85 85 91 52 91 80 0 129 -38 21 -58 42 -86 87 -27 45 -42 61
-62 63 -22 3 -30 -5 -56 -50z"/>
<path d="M1048 3790 c-21 -34 -51 -64 -86 -86 -68 -44 -68 -68 1 -105 35 -19
57 -41 81 -80 44 -75 65 -76 105 -5 24 42 44 62 87 86 71 40 70 61 -4 105 -40
23 -61 44 -80 81 -38 70 -62 71 -104 4z"/>
<path d="M3832 3818 c-5 -7 -19 -32 -31 -55 -15 -30 -36 -50 -76 -73 -75 -43
-75 -68 -3 -107 40 -21 59 -40 82 -81 41 -70 68 -69 110 5 21 37 40 56 67 69
84 37 87 74 10 116 -34 18 -57 41 -76 75 -38 64 -60 78 -83 51z"/>
<path d="M2460 3569 c-405 -39 -757 -340 -861 -739 -32 -126 -37 -315 -11
-441 131 -632 810 -975 1391 -703 269 126 463 358 543 653 17 62 21 106 22
241 1 143 -2 176 -22 250 -76 279 -266 513 -518 639 -96 48 -231 89 -322 96
-37 3 -83 7 -102 9 -19 2 -73 -1 -120 -5z m18 -179 c67 -41 95 -137 52 -180
-56 -56 -180 21 -180 113 0 47 6 58 35 75 29 17 56 14 93 -8z m529 -222 c51
-48 15 -138 -54 -138 -46 0 -68 13 -83 50 -14 34 0 83 29 100 29 17 83 11 108
-12z m-857 -48 c24 -24 26 -60 5 -100 -29 -56 -90 -67 -125 -23 -28 36 -21 78
20 116 36 32 72 35 100 7z m749 -239 c33 -24 61 -77 61 -115 0 -16 -11 -38
-26 -53 -21 -21 -32 -24 -60 -20 -46 8 -88 39 -108 81 -23 49 -20 83 10 113
21 21 32 24 60 20 19 -3 47 -15 63 -26z m-403 -75 c29 -29 34 -41 34 -80 0
-109 -123 -162 -199 -85 -75 75 -21 199 86 199 38 0 50 -5 79 -34z m-542 -66
c14 -5 35 -24 46 -42 46 -75 4 -168 -75 -168 -53 0 -95 47 -95 107 0 36 34 91
63 103 29 12 31 12 61 0z m1305 -59 c61 -61 9 -201 -75 -201 -8 0 -26 11 -39
25 -42 41 -28 155 22 184 29 17 71 13 92 -8z m-521 -247 c47 -53 10 -134 -60
-134 -46 0 -76 24 -84 65 -16 87 84 135 144 69z m-488 -54 c52 -26 82 -72 88
-131 6 -60 -10 -100 -54 -139 -61 -53 -142 -58 -211 -13 -55 36 -81 149 -49
211 42 82 143 114 226 72z m866 -115 c33 -50 -19 -135 -83 -135 -62 0 -73 72
-19 126 41 41 78 45 102 9z m-396 -240 c61 -31 64 -98 7 -153 -61 -59 -144
-70 -196 -26 -57 47 -32 132 50 172 52 26 99 28 139 7z"/>
<path d="M489 3346 c-93 -20 -179 -57 -201 -87 -33 -44 -17 -72 74 -126 152
-90 265 -242 304 -408 21 -91 15 -244 -15 -335 -46 -144 -155 -279 -285 -354
-81 -47 -102 -73 -89 -113 19 -60 191 -113 363 -113 529 0 897 508 735 1017
-33 105 -86 192 -170 281 -107 114 -228 188 -370 226 -84 23 -264 29 -346 12z
m321 -152 c103 -30 190 -83 276 -169 126 -125 184 -263 184 -437 0 -117 -14
-176 -66 -285 -73 -152 -212 -273 -374 -324 -70 -23 -216 -36 -273 -25 l-36 7
68 67 c156 153 232 336 232 557 0 222 -76 399 -241 560 l-61 60 33 7 c51 10
197 0 258 -18z"/>
<path d="M4375 3353 c-172 -24 -332 -109 -460 -245 -121 -128 -184 -266 -204
-443 -44 -381 206 -739 583 -835 200 -51 520 3 549 93 13 40 -8 66 -89 113
-127 73 -227 194 -282 342 -33 90 -41 246 -18 347 39 166 152 318 304 408 91
54 107 82 74 126 -49 67 -291 117 -457 94z m179 -139 l47 -7 -74 -76 c-87 -90
-104 -114 -152 -209 -53 -107 -76 -206 -76 -337 0 -221 76 -404 232 -557 l68
-67 -36 -7 c-57 -11 -203 2 -273 25 -204 65 -377 249 -425 452 -19 82 -19 228
0 304 78 305 387 520 689 479z"/>
<path d="M1191 1617 c-23 -40 -43 -60 -80 -80 -27 -15 -52 -34 -55 -43 -8 -22
15 -47 64 -69 29 -13 48 -32 70 -72 17 -30 37 -56 46 -60 20 -7 47 19 69 68
14 30 31 47 65 64 86 44 87 71 5 115 -33 18 -55 39 -76 78 -42 71 -67 71 -108
-1z"/>
<path d="M3973 1636 c-10 -13 -26 -38 -35 -55 -10 -18 -32 -39 -49 -49 -53
-29 -81 -56 -74 -73 3 -8 29 -29 58 -45 40 -23 59 -42 80 -82 39 -72 64 -72
107 3 24 43 43 61 80 80 77 39 77 64 -3 110 -33 20 -59 45 -74 70 -40 73 -59
82 -90 41z"/>
<path d="M3149 1369 c-7 -4 -27 -32 -44 -61 -30 -50 -53 -71 -124 -110 -22
-12 -31 -24 -31 -42 0 -19 12 -31 63 -59 53 -30 67 -45 95 -97 30 -53 37 -61
60 -58 19 2 35 18 62 63 28 46 48 66 88 88 54 29 76 55 67 79 -3 8 -32 28 -65
46 -49 27 -65 43 -92 92 -32 58 -54 75 -79 59z"/>
<path d="M1658 1153 c-9 -10 -25 -37 -37 -60 -22 -43 -33 -54 -114 -104 -41
-25 -48 -34 -45 -56 2 -21 16 -34 66 -61 53 -29 67 -43 97 -97 20 -35 43 -66
51 -69 27 -10 53 13 83 71 24 49 37 62 92 93 54 30 64 41 67 66 3 27 -2 33
-59 64 -50 28 -69 46 -95 90 -18 30 -38 61 -44 68 -15 17 -44 15 -62 -5z"/>
<path d="M3868 963 c-8 -10 -27 -40 -42 -68 -21 -40 -40 -57 -89 -85 -54 -31
-62 -39 -62 -65 0 -25 8 -34 64 -66 54 -31 69 -46 92 -91 15 -30 35 -60 44
-68 25 -21 57 1 92 65 25 48 41 63 94 94 56 32 64 41 64 66 0 26 -8 34 -62 65
-49 28 -68 45 -89 85 -34 64 -53 85 -74 85 -9 0 -24 -8 -32 -17z"/>
<path d="M2533 848 c-6 -7 -20 -32 -32 -55 -15 -31 -35 -49 -73 -70 -73 -39
-73 -65 -1 -108 37 -21 60 -44 80 -80 22 -38 34 -50 53 -50 19 0 31 12 53 50
20 36 43 59 80 80 71 42 72 70 2 107 -38 20 -57 39 -80 80 -31 54 -62 71 -82
46z"/>
</g>
</svg>
