<svg version="1.1" id="Layer_1" xmlns="http://www.w3.org/2000/svg" xmlns:xlink="http://www.w3.org/1999/xlink" x="0px" y="0px"
	 width="100%" viewBox="0 0 512 512" enable-background="new 0 0 512 512" xml:space="preserve">
<path fill="#000000" opacity="1.000000" stroke="none" 
	d="
M513.000000,262.000000 
	C513.000000,345.593719 513.000000,429.187408 513.000000,513.000000 
	C429.645905,513.000000 346.291595,513.000000 262.132935,512.742981 
	C273.435852,488.608612 285.706268,464.811523 297.524109,440.791809 
	C300.146881,435.460999 296.290283,430.728638 290.737244,430.832062 
	C268.786591,431.241058 246.823807,430.999939 224.865524,431.000092 
	C216.318115,431.000122 213.597931,435.303070 217.399689,442.898102 
	C225.461319,459.003448 233.601318,475.069733 241.613800,491.199432 
	C245.194397,498.407410 248.545013,505.729614 252.000000,513.000000 
	C168.406296,513.000000 84.812584,513.000000 1.000000,513.000000 
	C1.000000,429.645905 1.000000,346.291595 1.259867,262.133911 
	C2.037693,261.746368 2.500644,262.272552 3.081546,262.562134 
	C26.278019,274.125946 49.476570,285.685638 72.697258,297.200714 
	C78.213135,299.936035 83.327232,296.516052 83.190308,290.348785 
	C82.702866,268.392639 82.594559,246.407822 83.202370,224.457657 
	C83.440514,215.857391 76.830605,214.397125 71.118805,217.328934 
	C56.389523,224.889389 41.580051,232.295502 26.747183,239.651505 
	C18.220524,243.880051 9.585978,247.891052 0.999999,252.000000 
	C1.000000,168.406296 1.000000,84.812584 1.000000,1.000000 
	C84.354103,1.000000 167.708389,1.000000 251.865952,1.259569 
	C252.367722,1.917444 251.995209,2.280114 251.774902,2.719170 
	C240.040863,26.104837 228.259247,49.467030 216.645950,72.912575 
	C214.201706,77.847153 217.122833,83.315590 223.395096,83.181854 
	C245.384705,82.712997 267.390442,83.001022 289.390045,82.999435 
	C297.620728,82.998840 300.353668,78.625847 296.675903,71.248138 
	C285.725220,49.280815 274.741272,27.330059 263.793579,5.361235 
	C263.094330,3.958018 262.593262,2.456039 262.000000,1.000001 
	C345.593719,1.000000 429.187408,1.000000 513.000000,1.000000 
	C513.000000,84.354103 513.000000,167.708389 512.742920,251.866959 
	C488.566833,240.538040 464.735077,228.226761 440.657898,216.415909 
	C435.601776,213.935684 430.730072,217.408646 430.841400,223.441208 
	C431.244232,245.265121 430.999786,267.100952 431.000092,288.932312 
	C431.000244,297.823578 435.154663,300.368774 443.166504,296.366058 
	C456.544891,289.682251 469.888336,282.927734 483.300354,276.312195 
	C493.155640,271.451050 503.096985,266.764404 513.000000,262.000000 
M196.068832,376.553162 
	C196.375397,376.645966 196.681961,376.738770 197.667938,377.150879 
	C201.506729,378.785645 205.288635,380.572876 209.193893,382.029449 
	C228.730759,389.316315 248.711136,392.241699 269.684326,390.213409 
	C285.949249,388.640411 301.308868,384.511261 315.790009,377.479797 
	C332.981689,369.132172 347.707367,357.458801 360.057007,342.612885 
	C378.541595,320.391968 388.586853,294.851959 390.857086,266.339844 
	C392.257233,248.755432 389.786377,231.407837 384.222778,214.551117 
	C379.185364,199.288666 371.758484,185.291519 361.386261,173.103195 
	C355.245453,165.887222 347.938324,159.663818 340.867004,152.354355 
	C326.584747,141.086395 310.804962,132.876404 293.223267,127.893005 
	C274.742462,122.654747 255.954147,121.398903 237.188614,124.228188 
	C215.997803,127.423126 196.355530,135.278214 178.832718,147.998657 
	C161.568222,160.531555 147.840485,176.190292 138.089798,195.071716 
	C130.152985,210.440735 125.448944,226.798447 123.787926,244.241257 
	C122.112946,261.830719 123.921577,278.744995 128.821228,295.576508 
	C133.982651,313.307312 142.686310,328.968140 154.495712,343.136047 
	C166.079102,357.032806 179.828461,368.000397 195.969482,376.026184 
	C195.969482,376.026184 195.900574,376.049286 196.068832,376.553162 
M83.119606,439.987152 
	C83.687653,439.677826 84.224182,439.273773 84.828270,439.072754 
	C107.958763,431.376038 131.097336,423.703644 154.230209,416.014099 
	C161.632263,413.553619 162.924271,408.432617 157.487518,402.982849 
	C141.974899,387.432983 126.449913,371.895386 110.901070,356.381744 
	C106.068527,351.560120 100.144539,352.984375 98.002510,359.458344 
	C90.293320,382.758362 82.796272,406.131134 74.796974,429.330872 
	C72.676056,435.481964 75.340492,441.462402 83.119606,439.987152 
M119.312401,86.062775 
	C107.643440,82.281761 96.033859,78.295982 84.258705,74.881149 
	C81.702065,74.139709 77.545761,74.462624 75.958542,76.086388 
	C74.382385,77.698845 74.176460,81.867943 74.982925,84.402504 
	C82.464241,107.915054 90.275253,131.322952 98.036522,154.746002 
	C100.045273,160.808289 106.203758,162.281891 110.696579,157.802200 
	C126.374542,142.170074 142.031525,126.516853 157.676056,110.851250 
	C162.237839,106.283325 160.951019,100.070961 154.959976,98.054504 
	C143.328033,94.139442 131.655624,90.344681 119.312401,86.062775 
M415.946716,155.221786 
	C423.649689,131.748337 431.455627,108.307503 438.919189,84.758163 
	C439.805145,81.962852 439.981079,77.467834 438.370026,75.777260 
	C436.809235,74.139488 432.228821,74.189972 429.473572,75.066780 
	C406.087097,82.509163 382.811279,90.299713 359.510406,98.010376 
	C353.363892,100.044365 351.555084,105.915344 356.125610,110.573372 
	C371.741333,126.488060 387.529755,142.235703 403.416656,157.880203 
	C407.469788,161.871521 412.705231,160.777695 415.946716,155.221786 
M400.531036,358.967529 
	C386.046844,373.452393 371.537964,387.912659 357.092010,402.435577 
	C352.104004,407.450134 352.551544,413.684631 358.258392,415.584442 
	C382.173096,423.545685 406.186462,431.210266 430.122833,439.107178 
	C433.315338,440.160461 436.665497,441.128082 438.417633,437.810974 
	C439.602753,435.567322 439.866669,432.113373 439.084656,429.666687 
	C431.559143,406.121704 423.741180,382.669983 415.963470,359.205933 
	C414.222595,353.953857 408.783142,352.152679 404.236023,355.307251 
	C403.025757,356.146912 402.091980,357.385132 400.531036,358.967529 
z"/>
<path fill="#FFC107" opacity="1.000000" stroke="none" 
	d="
M261.545898,1.000001 
	C262.593262,2.456039 263.094330,3.958018 263.793579,5.361235 
	C274.741272,27.330059 285.725220,49.280815 296.675903,71.248138 
	C300.353668,78.625847 297.620728,82.998840 289.390045,82.999435 
	C267.390442,83.001022 245.384705,82.712997 223.395096,83.181854 
	C217.122833,83.315590 214.201706,77.847153 216.645950,72.912575 
	C228.259247,49.467030 240.040863,26.104837 251.774902,2.719170 
	C251.995209,2.280114 252.367722,1.917444 252.334610,1.259569 
	C255.030594,1.000000 258.061188,1.000000 261.545898,1.000001 
z"/>
<path fill="#FFC107" opacity="1.000000" stroke="none" 
	d="
M0.999999,252.454102 
	C9.585978,247.891052 18.220524,243.880051 26.747183,239.651505 
	C41.580051,232.295502 56.389523,224.889389 71.118805,217.328934 
	C76.830605,214.397125 83.440514,215.857391 83.202370,224.457657 
	C82.594559,246.407822 82.702866,268.392639 83.190308,290.348785 
	C83.327232,296.516052 78.213135,299.936035 72.697258,297.200714 
	C49.476570,285.685638 26.278019,274.125946 3.081546,262.562134 
	C2.500644,262.272552 2.037693,261.746368 1.259867,261.665253 
	C1.000000,258.969421 1.000000,255.938812 0.999999,252.454102 
z"/>
<path fill="#FFC107" opacity="1.000000" stroke="none" 
	d="
M513.000000,261.545898 
	C503.096985,266.764404 493.155640,271.451050 483.300354,276.312195 
	C469.888336,282.927734 456.544891,289.682251 443.166504,296.366058 
	C435.154663,300.368774 431.000244,297.823578 431.000092,288.932312 
	C430.999786,267.100952 431.244232,245.265121 430.841400,223.441208 
	C430.730072,217.408646 435.601776,213.935684 440.657898,216.415909 
	C464.735077,228.226761 488.566833,240.538040 512.742920,252.335617 
	C513.000000,255.030594 513.000000,258.061188 513.000000,261.545898 
z"/>
<path fill="#FFC107" opacity="1.000000" stroke="none" 
	d="
M252.454102,513.000000 
	C248.545013,505.729614 245.194397,498.407410 241.613800,491.199432 
	C233.601318,475.069733 225.461319,459.003448 217.399689,442.898102 
	C213.597931,435.303070 216.318115,431.000122 224.865524,431.000092 
	C246.823807,430.999939 268.786591,431.241058 290.737244,430.832062 
	C296.290283,430.728638 300.146881,435.460999 297.524109,440.791809 
	C285.706268,464.811523 273.435852,488.608612 261.664307,512.742981 
	C258.969421,513.000000 255.938812,513.000000 252.454102,513.000000 
z"/>
<path fill="#FFC107" opacity="1.000000" stroke="none" 
	d="
M341.155640,152.994110 
	C347.938324,159.663818 355.245453,165.887222 361.386261,173.103195 
	C371.758484,185.291519 379.185364,199.288666 384.222778,214.551117 
	C389.786377,231.407837 392.257233,248.755432 390.857086,266.339844 
	C388.586853,294.851959 378.541595,320.391968 360.057007,342.612885 
	C347.707367,357.458801 332.981689,369.132172 315.790009,377.479797 
	C301.308868,384.511261 285.949249,388.640411 269.684326,390.213409 
	C248.711136,392.241699 228.730759,389.316315 209.193893,382.029449 
	C205.288635,380.572876 201.506729,378.785645 197.170074,376.830017 
	C196.447098,376.302002 196.189896,376.148712 195.900574,376.049286 
	C195.900574,376.049286 195.969482,376.026184 195.901962,375.719208 
	C190.602631,369.681793 184.980896,364.256744 180.210144,358.165222 
	C164.169281,337.683502 154.399323,314.652313 151.728073,288.527588 
	C149.262085,264.410431 152.900879,241.423965 162.842926,219.494812 
	C171.920303,199.472885 185.435791,182.911606 202.935867,169.427780 
	C227.599884,150.424088 255.621567,141.360886 286.400421,141.263443 
	C296.723328,141.230759 307.155914,143.604218 317.351257,145.761993 
	C325.434204,147.472702 333.231506,150.533035 341.155640,152.994110 
M328.510681,316.014282 
	C327.155518,317.692871 325.935852,319.505859 324.424530,321.029572 
	C306.288940,339.314117 284.350311,349.013855 258.595703,349.990753 
	C253.837540,350.171265 250.892456,352.396851 251.200119,356.103882 
	C251.558884,360.426697 254.519928,362.061859 258.475891,361.942230 
	C261.614594,361.847321 264.735626,361.274811 267.874176,361.049103 
	C284.166809,359.877502 298.942810,354.220490 312.749115,345.798889 
	C329.516724,335.570923 342.042084,321.303101 350.864380,303.943329 
	C358.104279,289.697327 361.729736,274.351440 361.928925,258.317719 
	C361.975189,254.595337 360.750854,251.005478 356.125946,251.185074 
	C351.747681,251.355118 350.072266,254.124069 349.925812,258.574768 
	C349.226898,279.815125 342.695984,298.991791 328.510681,316.014282 
z"/>
<path fill="#FFAE06" opacity="1.000000" stroke="none" 
	d="
M341.011322,152.674225 
	C333.231506,150.533035 325.434204,147.472702 317.351257,145.761993 
	C307.155914,143.604218 296.723328,141.230759 286.400421,141.263443 
	C255.621567,141.360886 227.599884,150.424088 202.935867,169.427780 
	C185.435791,182.911606 171.920303,199.472885 162.842926,219.494812 
	C152.900879,241.423965 149.262085,264.410431 151.728073,288.527588 
	C154.399323,314.652313 164.169281,337.683502 180.210144,358.165222 
	C184.980896,364.256744 190.602631,369.681793 195.889481,375.753357 
	C179.828461,368.000397 166.079102,357.032806 154.495712,343.136047 
	C142.686310,328.968140 133.982651,313.307312 128.821228,295.576508 
	C123.921577,278.744995 122.112946,261.830719 123.787926,244.241257 
	C125.448944,226.798447 130.152985,210.440735 138.089798,195.071716 
	C147.840485,176.190292 161.568222,160.531555 178.832718,147.998657 
	C196.355530,135.278214 215.997803,127.423126 237.188614,124.228188 
	C255.954147,121.398903 274.742462,122.654747 293.223267,127.893005 
	C310.804962,132.876404 326.584747,141.086395 341.011322,152.674225 
z"/>
<path fill="#FFC107" opacity="1.000000" stroke="none" 
	d="
M82.695251,439.992676 
	C75.340492,441.462402 72.676056,435.481964 74.796974,429.330872 
	C82.796272,406.131134 90.293320,382.758362 98.002510,359.458344 
	C100.144539,352.984375 106.068527,351.560120 110.901070,356.381744 
	C126.449913,371.895386 141.974899,387.432983 157.487518,402.982849 
	C162.924271,408.432617 161.632263,413.553619 154.230209,416.014099 
	C131.097336,423.703644 107.958763,431.376038 84.828270,439.072754 
	C84.224182,439.273773 83.687653,439.677826 82.695251,439.992676 
z"/>
<path fill="#FFC107" opacity="1.000000" stroke="none" 
	d="
M119.656189,86.281425 
	C131.655624,90.344681 143.328033,94.139442 154.959976,98.054504 
	C160.951019,100.070961 162.237839,106.283325 157.676056,110.851250 
	C142.031525,126.516853 126.374542,142.170074 110.696579,157.802200 
	C106.203758,162.281891 100.045273,160.808289 98.036522,154.746002 
	C90.275253,131.322952 82.464241,107.915054 74.982925,84.402504 
	C74.176460,81.867943 74.382385,77.698845 75.958542,76.086388 
	C77.545761,74.462624 81.702065,74.139709 84.258705,74.881149 
	C96.033859,78.295982 107.643440,82.281761 119.656189,86.281425 
z"/>
<path fill="#FFC207" opacity="1.000000" stroke="none" 
	d="
M415.759186,155.577942 
	C412.705231,160.777695 407.469788,161.871521 403.416656,157.880203 
	C387.529755,142.235703 371.741333,126.488060 356.125610,110.573372 
	C351.555084,105.915344 353.363892,100.044365 359.510406,98.010376 
	C382.811279,90.299713 406.087097,82.509163 429.473572,75.066780 
	C432.228821,74.189972 436.809235,74.139488 438.370026,75.777260 
	C439.981079,77.467834 439.805145,81.962852 438.919189,84.758163 
	C431.455627,108.307503 423.649689,131.748337 415.759186,155.577942 
z"/>
<path fill="#FFC107" opacity="1.000000" stroke="none" 
	d="
M400.781128,358.703949 
	C402.091980,357.385132 403.025757,356.146912 404.236023,355.307251 
	C408.783142,352.152679 414.222595,353.953857 415.963470,359.205933 
	C423.741180,382.669983 431.559143,406.121704 439.084656,429.666687 
	C439.866669,432.113373 439.602753,435.567322 438.417633,437.810974 
	C436.665497,441.128082 433.315338,440.160461 430.122833,439.107178 
	C406.186462,431.210266 382.173096,423.545685 358.258392,415.584442 
	C352.551544,413.684631 352.104004,407.450134 357.092010,402.435577 
	C371.537964,387.912659 386.046844,373.452393 400.781128,358.703949 
z"/>
<path fill="#FFAE06" opacity="1.000000" stroke="none" 
	d="
M195.984711,376.301208 
	C196.189896,376.148712 196.447098,376.302002 196.830368,376.670380 
	C196.681961,376.738770 196.375397,376.645966 195.984711,376.301208 
z"/>
<path fill="#FFAE06" opacity="1.000000" stroke="none" 
	d="
M328.757385,315.754944 
	C342.695984,298.991791 349.226898,279.815125 349.925812,258.574768 
	C350.072266,254.124069 351.747681,251.355118 356.125946,251.185074 
	C360.750854,251.005478 361.975189,254.595337 361.928925,258.317719 
	C361.729736,274.351440 358.104279,289.697327 350.864380,303.943329 
	C342.042084,321.303101 329.516724,335.570923 312.749115,345.798889 
	C298.942810,354.220490 284.166809,359.877502 267.874176,361.049103 
	C264.735626,361.274811 261.614594,361.847321 258.475891,361.942230 
	C254.519928,362.061859 251.558884,360.426697 251.200119,356.103882 
	C250.892456,352.396851 253.837540,350.171265 258.595703,349.990753 
	C284.350311,349.013855 306.288940,339.314117 324.424530,321.029572 
	C325.935852,319.505859 327.155518,317.692871 328.757385,315.754944 
z"/>
</svg>